# xmcd CD database file
#
# Track frame offsets:
#	150
#	12878
#	30488
#	49827
#	67335
#	78968
#	96128
#	112615
#	128637
#	144863
#	157155
#	170830
#	189335
#	207495
#	224577
#	245720
#	263123
#	282330
#	300612
#	315372
#
# Disc length: 4426 seconds
#
# Revision: 0
# Processed by: cddbd v1.5.2PL0 Copyright (c) Steve Scherf et al.
# Submitted via: CDex 1.70beta2
#
DISCID=1d114814
DTITLE=ChartBreakers - ChartBreakers CGC-526
DYEAR=1900
DGENRE=Country
TTITLE0=Diamond Rio - This Romeo Ain't Got Julie Yet
TTITLE1=Reba McEntire - You Lie
TTITLE2=Tanya Tucker - Two Sparrows In A Hurricane
TTITLE3=Pam Tillis - Do You Know Where Your Man Is
TTITLE4=Randy Travis - Too Gone Too Long
TTITLE5=Tanya Tucker, Paul Davis and Paul Overstreet - I Won't Take Less Than Your Love
TTITLE6=Alabama - If I Had You
TTITLE7=Lorrie Morgan - He Talks To Me
TTITLE8=Reba McEntire - What Am I Gonna Do About You
TTITLE9=George Strait - Fireman
TTITLE10=Don Williams - Lord Have Mercy On A Country Boy
TTITLE11=Michelle Wright - Take It Like A Man
TTITLE12=Trisha Yearwood - Down On My Knees
TTITLE13=Trisha Yearwood - Like We Never Had A Broken Heart
TTITLE14=Alabama - She And I
TTITLE15=Baillie and The Boys - (I Wish I Had A) Heart Of Stone
TTITLE16=Lionel Cartwright - Give Me His Last Chance
TTITLE17=Earl Thomas Conley - I Can't Win For Losin' You
TTITLE18=Collin Raye - In This Life
TTITLE19=Judds - Cry Myself To Sleep
EXTD=YEAR: 1900
EXTT0=
EXTT1=
EXTT2=
EXTT3=
EXTT4=
EXTT5=
EXTT6=
EXTT7=
EXTT8=
EXTT9=
EXTT10=
EXTT11=
EXTT12=
EXTT13=
EXTT14=
EXTT15=
EXTT16=
EXTT17=
EXTT18=
EXTT19=
PLAYORDER=
